<svg fill="#000" fill-rule="evenodd" height="1em" style="flex:none;line-height:1" viewBox="0 0 24 24" width="1em" xmlns="http://www.w3.org/2000/svg"><title>GitHub Copilot</title><path d="M14.298 1.702c2.535 0 4.691 1.646 5.507 3.934h1.395c1.312 0 2.4 1.088 2.4 2.4v11.328c0 1.312-1.088 2.4-2.4 2.4H4.8c-1.312 0-2.4-1.088-2.4-2.4V8.036c0-1.312 1.088-2.4 2.4-2.4h1.395C9.607 3.348 11.763 1.702 14.298 1.702zm0 1.2c-2.033 0-3.744 1.406-4.197 3.3h8.394c-.453-1.894-2.164-3.3-4.197-3.3zM3.6 9.236v9.128c0 .66.54 1.2 1.2 1.2h14.4c.66 0 1.2-.54 1.2-1.2V9.236H3.6zm4.5 2.4c.99 0 1.8.81 1.8 1.8s-.81 1.8-1.8 1.8-1.8-.81-1.8-1.8.81-1.8 1.8-1.8zm6 0c.99 0 1.8.81 1.8 1.8s-.81 1.8-1.8 1.8-1.8-.81-1.8-1.8.81-1.8 1.8-1.8z"/></svg>
